<?xml version="1.0" standalone="no"?>
<!DOCTYPE svg PUBLIC "-//W3C//DTD SVG 20010904//EN"
 "http://www.w3.org/TR/2001/REC-SVG-20010904/DTD/svg10.dtd">
<svg version="1.0" xmlns="http://www.w3.org/2000/svg"
 width="404.000000pt" height="404.000000pt" viewBox="0 0 404.000000 404.000000"
 preserveAspectRatio="xMidYMid meet">
<metadata>
Created by potrace 1.14, written by Peter Selinger 2001-2017
</metadata>
<g transform="translate(0.000000,404.000000) scale(0.100000,-0.100000)"
fill="#000000" stroke="none">
<path d="M320 3994 c-112 -28 -210 -67 -210 -82 0 -13 61 -122 67 -122 4 0 38
11 77 24 338 117 519 6 561 -344 4 -30 7 -394 7 -810 l1 -755 76 0 76 0 0 750
c0 413 -3 782 -7 820 -27 267 -139 444 -323 511 -64 23 -247 28 -325 8z"/>
<path d="M1187 3953 c-3 -5 -5 -39 -5 -78 l0 -70 1136 -1 c626 0 1167 -3 1204
-7 126 -13 234 -72 264 -143 17 -40 18 -109 3 -155 -7 -19 -48 -117 -91 -219
-95 -219 -101 -233 -103 -240 -1 -3 -8 -21 -17 -40 -8 -19 -94 -217 -190 -440
-97 -223 -186 -427 -199 -454 l-24 -49 -991 0 -991 0 0 -76 0 -76 1042 0 1042
0 183 420 c101 231 193 443 206 470 12 28 31 70 42 95 11 25 57 131 102 235
45 105 90 208 100 230 15 35 32 80 35 95 1 3 4 14 8 26 12 35 15 142 5 186
-21 96 -69 160 -157 211 -31 17 -60 33 -66 34 -5 2 -50 14 -100 27 l-90 25
-1172 0 c-644 1 -1174 -2 -1176 -6z"/>
<path d="M2520 3040 c-195 -198 -357 -359 -360 -360 -3 0 -84 79 -180 175 -96
96 -180 175 -186 175 -13 0 -104 -86 -104 -98 0 -4 105 -112 234 -240 l233
-233 417 415 c229 228 416 418 416 422 0 7 -102 104 -110 104 -3 0 -165 -162
-360 -360z"/>
<path d="M935 1688 c-237 -43 -405 -293 -361 -536 40 -217 229 -374 451 -374
193 0 348 101 427 280 l32 72 83 1 c46 0 139 0 208 0 69 0 199 0 288 0 l164
-1 13 -42 c34 -115 134 -222 262 -280 21 -9 38 -15 38 -12 0 3 10 -1 22 -7 36
-19 194 -13 260 10 323 112 419 509 182 756 -81 85 -187 132 -309 139 -128 6
-236 -33 -335 -122 -63 -57 -125 -164 -135 -237 l-7 -45 -47 -1 c-49 0 -617 0
-663 1 -23 0 -27 5 -33 43 -18 111 -127 257 -231 310 -93 47 -204 63 -309 45z
m229 -177 c47 -23 112 -83 121 -112 4 -11 10 -19 14 -19 7 0 28 -77 35 -129 5
-41 -14 -118 -40 -165 -69 -123 -216 -182 -355 -142 -124 36 -209 145 -215
273 -3 83 15 141 65 208 85 112 244 149 375 86z m1640 2 c65 -33 105 -75 138
-140 99 -201 -30 -424 -252 -440 -107 -8 -211 41 -268 126 -86 130 -73 285 33
394 85 87 243 114 349 60z"/>
<path d="M1134 585 c1 -33 5 -63 9 -66 5 -3 21 -5 37 -3 25 3 29 -1 35 -29 11
-47 58 -149 96 -203 189 -274 563 -349 854 -171 112 69 221 210 257 334 l21
71 36 -1 36 -2 3 63 c2 34 -1 62 -5 63 -37 4 -166 3 -172 -1 -4 -3 -13 -36
-19 -74 -54 -332 -410 -519 -714 -373 -151 73 -267 236 -281 394 -2 24 -6 46
-10 49 -4 4 -46 7 -95 8 l-88 1 0 -60z"/>
</g>
</svg>
